<svg xmlns="http://www.w3.org/2000/svg" viewBox="0 0 122.654 39.699">
  <g id="Group_429" data-name="Group 429" transform="translate(-348.16 -9)">
    <g id="Group_429-2" data-name="Group 429" transform="translate(348.16 9.07)">
      <path id="Path_1" data-name="Path 1" d="M8.233,11.579V25.463a2.843,2.843,0,0,0,.7,2.093,2.383,2.383,0,0,0,1.767.7,3.092,3.092,0,0,0,1.093-.163,5.015,5.015,0,0,0,.791-.372c.209-.14.4-.256.558-.372a.738.738,0,0,1,.419-.163.592.592,0,0,1,.372.116,1.139,1.139,0,0,1,.279.349l1.349,2.186a7.962,7.962,0,0,1-2.651,1.581,9.284,9.284,0,0,1-3.186.558,5.852,5.852,0,0,1-4.419-1.6,6.411,6.411,0,0,1-1.558-4.6V11.579H.93a1.013,1.013,0,0,1-.674-.256A.933.933,0,0,1,0,10.6V8.765L3.861,8.23,4.884,1.16A1.231,1.231,0,0,1,5.256.533,1.142,1.142,0,0,1,5.954.3h2.3V8.254l9.117-.047-.512,3.256Z" transform="translate(0 -0.3)"/>
      <path id="Path_2" data-name="Path 2" d="M123.056,36.754a13.075,13.075,0,0,1,1.6-1.6,9.877,9.877,0,0,1,1.837-1.256,9.1,9.1,0,0,1,2.093-.814,9.752,9.752,0,0,1,2.372-.279,8.267,8.267,0,0,1,3.675.791,7.911,7.911,0,0,1,2.814,2.326,11.73,11.73,0,0,1,1.814,3.791,19.388,19.388,0,0,1,.651,5.186,15.544,15.544,0,0,1-.721,4.861,11.636,11.636,0,0,1-2.023,3.884,9.6,9.6,0,0,1-3.209,2.581,9.481,9.481,0,0,1-4.279.93,8.556,8.556,0,0,1-3.628-.7,8.8,8.8,0,0,1-2.7-1.954V64.731H118.8V33.219h2.721a1.117,1.117,0,0,1,1.186.907Zm.233,12.791a3.66,3.66,0,0,0,1.372,2.884,4.808,4.808,0,0,0,1.047.628,6.907,6.907,0,0,0,2.907.581,5.726,5.726,0,0,0,4.837-2.233c1.14-1.488,1.721-3.675,1.721-6.535a16.357,16.357,0,0,0-.4-3.837,7.277,7.277,0,0,0-1.116-2.6,4.477,4.477,0,0,0-1.814-1.488,5.83,5.83,0,0,0-2.419-.465,6.588,6.588,0,0,0-3.442.884,8.43,8.43,0,0,0-1.558,1.233,3.675,3.675,0,0,0-1.116,2.651v8.3Z" transform="translate(-91.171 -25.242)"/>
      <path id="Path_3" data-name="Path 3" d="M220.486,38.128a12.7,12.7,0,0,1,3.6-2.7,9.544,9.544,0,0,1,4.326-.93,7.606,7.606,0,0,1,3.116.581,5.593,5.593,0,0,1,2.209,1.651,7.036,7.036,0,0,1,1.3,2.6,13.043,13.043,0,0,1,.419,3.442V57.9h-.419a.5.5,0,0,1-.535-.488l-.233-3.4c-.628.651-1.279,1.233-1.907,1.767a10.573,10.573,0,0,1-2.023,1.349,10.915,10.915,0,0,1-2.3.86,11.081,11.081,0,0,1-2.721.3,7.618,7.618,0,0,1-2.163-.326,5.32,5.32,0,0,1-1.93-1.023,4.988,4.988,0,0,1-1.4-1.814,6.23,6.23,0,0,1-.535-2.674,4.653,4.653,0,0,1,.884-2.744,7.1,7.1,0,0,1,2.721-2.14,18.286,18.286,0,0,1,4.675-1.419,43.841,43.841,0,0,1,6.721-.628V42.733a8.532,8.532,0,0,0-1.488-5.372,5.267,5.267,0,0,0-4.442-1.907,7.788,7.788,0,0,0-3,.512,8.793,8.793,0,0,0-2.093,1.116,16.408,16.408,0,0,0-1.349,1.116c-.326.326-.581.512-.767.512a.52.52,0,0,1-.419-.256Zm13.745,10.024a1.755,1.755,0,0,0-1.861-1.744,26.022,26.022,0,0,0-8.558,1.651c-2.256,1-3.372,2.442-3.372,4.279a4.927,4.927,0,0,0,.442,2.209,4.586,4.586,0,0,0,1.14,1.558,4.321,4.321,0,0,0,1.628.907,6.356,6.356,0,0,0,1.861.3,9.893,9.893,0,0,0,2.721-.349,10.41,10.41,0,0,0,2.279-.93,11.363,11.363,0,0,0,1.954-1.372c.419-.372.837-.744,1.233-1.14a1.757,1.757,0,0,0,.512-1.256Z" transform="translate(-168.299 -26.546)"/>
      <path id="Path_4" data-name="Path 4" d="M308.409.4V31.68H307.2V.4Z" transform="translate(-235.756 -0.377)"/>
      <path id="Path_5" data-name="Path 5" d="M332.109.4V31.68H330.9V.4Z" transform="translate(-253.945 -0.377)"/>
      <path id="Path_6" data-name="Path 6" d="M371.866,54.935a5.371,5.371,0,0,1-1.3,1.14,11.522,11.522,0,0,1-1.93,1,16.382,16.382,0,0,1-2.349.7,12.078,12.078,0,0,1-2.6.279,10.373,10.373,0,0,1-4.256-.837,8.9,8.9,0,0,1-3.233-2.4,11.232,11.232,0,0,1-2.07-3.837A16.94,16.94,0,0,1,353.4,45.8a14.49,14.49,0,0,1,.7-4.6,10.462,10.462,0,0,1,2-3.6,8.958,8.958,0,0,1,3.186-2.349,10.52,10.52,0,0,1,4.3-.837,9.211,9.211,0,0,1,3.488.651,8.1,8.1,0,0,1,2.837,1.93,8.812,8.812,0,0,1,1.907,3.14,12.1,12.1,0,0,1,.7,4.256q0,.488-.419.488H354.679a3.121,3.121,0,0,0-.023.465v.488a16.287,16.287,0,0,0,.651,4.861,10.055,10.055,0,0,0,1.837,3.512,7.559,7.559,0,0,0,2.884,2.163,9.309,9.309,0,0,0,3.768.744,10.691,10.691,0,0,0,3.186-.419,12.584,12.584,0,0,0,2.256-.907,9.495,9.495,0,0,0,1.419-.907,1.651,1.651,0,0,1,.651-.419.375.375,0,0,1,.3.14Zm-1.814-10.884a1.247,1.247,0,0,0,1.233-1.372,9.824,9.824,0,0,0-.512-2.3,8.037,8.037,0,0,0-1.628-2.744,6.987,6.987,0,0,0-2.465-1.7,7.928,7.928,0,0,0-3.07-.581,9.353,9.353,0,0,0-3.512.628,7.782,7.782,0,0,0-2.675,1.767,9.1,9.1,0,0,0-1.814,2.744,11.576,11.576,0,0,0-.651,2.093,1.231,1.231,0,0,0,1.209,1.488h13.884Z" transform="translate(-271.212 -26.47)"/>
      <path id="Path_7" data-name="Path 7" d="M458.561,36,445.142,66.722a1.32,1.32,0,0,1-.279.419.612.612,0,0,1-.465.186h-.814l3.954-8.884L437.7,36h.93a.649.649,0,0,1,.419.14,1.093,1.093,0,0,1,.209.279l8.582,19.675a4.432,4.432,0,0,1,.349,1.07c.116-.326.233-.674.4-1.07l8.535-19.675a.81.81,0,0,1,.256-.3.571.571,0,0,1,.349-.116Z" transform="translate(-335.907 -27.697)"/>
    </g>
    <g id="Group_430" data-name="Group 430" transform="translate(365.533 16.954)">
      <path id="Path_8" data-name="Path 8" d="M77.7,34.2h2.047a.483.483,0,0,1,.488.442h0l.349,3.349c.093.93.186,1.861.3,2.791.116,1.209.256,2.419.372,3.628l.279,2.721c.023.3.047.6.093.884.093.954.186,1.884.3,2.837.14,1.279.256,2.558.4,3.814.116,1.093.209,2.163.326,3.256.047.488.116.977.163,1.465a.506.506,0,0,1-.116.4l-.419.628c-.3.465-.6.954-.907,1.419-.326.512-.674,1.023-1,1.535-.349.535-.7,1.07-1.047,1.581l-.558.837-.558-.837c-.3-.488-.6-.954-.93-1.442-.326-.512-.674-1.023-1.023-1.558l-1.047-1.6c-.14-.233-.3-.442-.442-.674a.553.553,0,0,1-.07-.279c.023-.419.07-.86.116-1.279.116-1.047.209-2.116.326-3.163.116-1.023.209-2.023.326-3.047.116-1.209.233-2.4.372-3.6.116-1.163.233-2.3.349-3.465.07-.6.14-1.209.209-1.837l.14-1.326c.116-1.163.233-2.3.349-3.465.116-1.047.209-2.116.326-3.163.023-.14.047-.3.07-.442A.4.4,0,0,1,77.7,34.2Z" transform="translate(-74.7 -34.2)"/>
    </g>
    <path id="Path_332" data-name="Path 332" d="M84.63,0a1.531,1.531,0,0,1,.86,1.7c-.14.744-.349,1.488-.535,2.233-.116.442-.233.86-.349,1.3a1.018,1.018,0,0,1-1.093.814H81.747a1.03,1.03,0,0,1-1.116-.837c-.279-1.047-.581-2.093-.814-3.14A3.747,3.747,0,0,1,79.793.93a.99.99,0,0,1,.86-.907C81.956,0,83.282,0,84.63,0Z" transform="translate(286.949 9)"/>
  </g>
</svg>
