<svg xmlns="http://www.w3.org/2000/svg" viewBox="0 0 20 20">
  <defs>
    <style>
      .cls-1 {
        fill: none;
      }

      .cls-2 {
        fill: #fff;
      }
    </style>
  </defs>
  <g id="Group_372" data-name="Group 372" transform="translate(-17 -287)">
    <rect id="Rectangle_585" data-name="Rectangle 585" class="cls-1" width="20" height="20" transform="translate(17 287)"/>
    <g id="cake" transform="translate(-22.283 288.324)">
      <g id="Group_317" data-name="Group 317" transform="translate(42.56)">
        <g id="Group_316" data-name="Group 316" transform="translate(0)">
          <path id="Path_328" data-name="Path 328" class="cls-2" d="M193.41,4.55a1.517,1.517,0,0,0,1.3-2.3L193.41,0l-1.3,2.252a1.517,1.517,0,0,0,1.3,2.3Z" transform="translate(-186.584)"/>
          <path id="Path_329" data-name="Path 329" class="cls-2" d="M53.936,150.85H50.144v-1.517H48.627v1.517H44.835a2.277,2.277,0,0,0-2.275,2.275v1.168a1.485,1.485,0,0,0,2.537,1.05l1.623-1.619,1.619,1.615a1.521,1.521,0,0,0,2.1,0l1.623-1.615,1.619,1.615a1.485,1.485,0,0,0,2.537-1.05v-1.164A2.288,2.288,0,0,0,53.936,150.85Z" transform="translate(-42.56 -144.024)"/>
          <path id="Path_330" data-name="Path 330" class="cls-2" d="M52.87,318.9h0l-.815-.815-.819.815a2.687,2.687,0,0,1-3.708,0l-.815-.815-.819.815a2.571,2.571,0,0,1-1.847.77,2.618,2.618,0,0,1-1.486-.466v3.5a.761.761,0,0,0,.758.758H55.452a.761.761,0,0,0,.758-.758v-3.5a2.611,2.611,0,0,1-3.341-.3Z" transform="translate(-42.56 -306.773)"/>
        </g>
      </g>
    </g>
  </g>
</svg>
