<svg xmlns="http://www.w3.org/2000/svg" viewBox="0 0 20 20">
  <defs>
    <style>
      .cls-1 {
        fill: none;
      }

      .cls-2 {
        fill: #fff;
      }
    </style>
  </defs>
  <g id="Group_365" data-name="Group 365" transform="translate(-17 -512)">
    <rect id="Rectangle_590" data-name="Rectangle 590" class="cls-1" width="20" height="20" transform="translate(17 512)"/>
    <g id="Group_73" data-name="Group 73" transform="translate(-66.962 422)">
      <path id="Path_96" data-name="Path 96" class="cls-2" d="M11.227,12H1.57A1.569,1.569,0,0,0,0,13.57v5.647a1.569,1.569,0,0,0,1.57,1.57H3.208v2.673a.251.251,0,0,0,.167.234c.033,0,.067.033.1.033a.289.289,0,0,0,.2-.1l2.606-2.84h4.945a1.569,1.569,0,0,0,1.57-1.57V13.57A1.569,1.569,0,0,0,11.227,12Zm0,0" transform="translate(85.962 83.71)"/>
      <path id="Path_97" data-name="Path 97" class="cls-2" d="M21.926.033,12.77,0A1.569,1.569,0,0,0,11.2,1.57V3.208a.475.475,0,0,0,.067.2.245.245,0,0,0,.2.067h6.716c2.406,0,2.64.535,2.64,2.105v5.714l.334.368a.289.289,0,0,0,.2.1.123.123,0,0,0,.1-.033.251.251,0,0,0,.167-.234V8.821h.3a1.569,1.569,0,0,0,1.57-1.57V1.6a1.569,1.569,0,0,0-1.57-1.57Zm0,0" transform="translate(78.504 91.7)"/>
    </g>
  </g>
</svg>
