<svg xmlns="http://www.w3.org/2000/svg" viewBox="0 0 20 20">
  <defs>
    <style>
      .cls-1 {
        fill: none;
      }

      .cls-2 {
        fill: #fff;
      }
    </style>
  </defs>
  <g id="Group_370" data-name="Group 370" transform="translate(-17 -422)">
    <rect id="Rectangle_588" data-name="Rectangle 588" class="cls-1" width="20" height="20" transform="translate(17 422)"/>
    <g id="bullhorn" transform="translate(19.626 424.642)">
      <g id="Group_311" data-name="Group 311" transform="translate(0.016 3.572)">
        <g id="Group_310" data-name="Group 310" transform="translate(0)">
          <path id="Path_322" data-name="Path 322" class="cls-2" d="M7.252,131.887v-5.519c-.156.014-.311.039-.469.046H2.277a.452.452,0,0,0-.452.452v.452H.468a.452.452,0,0,0-.452.452v2.714a.452.452,0,0,0,.452.452H1.825v.452a.452.452,0,0,0,.452.452h.274l1.818,4.846a.9.9,0,0,0,.666.563A.885.885,0,0,0,5.852,137l1.086-1.077a.9.9,0,0,0,.166-1.047l-1.518-3.036h1.2C6.944,131.848,7.1,131.873,7.252,131.887Z" transform="translate(-0.016 -126.368)"/>
        </g>
      </g>
      <g id="Group_313" data-name="Group 313" transform="translate(8.157)">
        <g id="Group_312" data-name="Group 312">
          <path id="Path_323" data-name="Path 323" class="cls-2" d="M294.273.219a.324.324,0,0,0-.029-.043.447.447,0,0,0-.189-.145s0,0-.007-.005-.017,0-.026,0A.451.451,0,0,0,293.9,0a.42.42,0,0,0-.088.018.5.5,0,0,0-.051.01.449.449,0,0,0-.2.128s-.009,0-.013.008a9.517,9.517,0,0,1-5.53,3.277V9.222a9.516,9.516,0,0,1,5.53,3.276s.01.006.014.012a.439.439,0,0,0,.112.087c.014.008.024.02.038.026a.466.466,0,0,0,.185.04.473.473,0,0,0,.153-.026s0,0,.007-.005a.44.44,0,0,0,.189-.145c.011-.014.019-.027.029-.043a.438.438,0,0,0,.074-.233V.452A.438.438,0,0,0,294.273.219Z" transform="translate(-288.016)"/>
        </g>
      </g>
    </g>
  </g>
</svg>
